<?xml version="1.0" encoding="UTF-8" standalone="no"?>
<svg
   xmlns:dc="http://purl.org/dc/elements/1.1/"
   xmlns:cc="http://creativecommons.org/ns#"
   xmlns:rdf="http://www.w3.org/1999/02/22-rdf-syntax-ns#"
   xmlns:svg="http://www.w3.org/2000/svg"
   xmlns="http://www.w3.org/2000/svg"
   xmlns:sodipodi="http://sodipodi.sourceforge.net/DTD/sodipodi-0.dtd"
   xmlns:inkscape="http://www.inkscape.org/namespaces/inkscape"
   height="16"
   width="16"
   version="1.1"
   id="svg6"
   sodipodi:docname="back-symbolic.svg"
   inkscape:version="1.0 (4035a4fb49, 2020-05-01)">
  <metadata
     id="metadata12">
    <rdf:RDF>
      <cc:Work
         rdf:about="">
        <dc:format>image/svg+xml</dc:format>
        <dc:type
           rdf:resource="http://purl.org/dc/dcmitype/StillImage" />
        <dc:title></dc:title>
      </cc:Work>
    </rdf:RDF>
  </metadata>
  <defs
     id="defs10" />
  <sodipodi:namedview
     pagecolor="#ffffff"
     bordercolor="#666666"
     borderopacity="1"
     objecttolerance="10"
     gridtolerance="10"
     guidetolerance="10"
     inkscape:pageopacity="0"
     inkscape:pageshadow="2"
     inkscape:window-width="2560"
     inkscape:window-height="1016"
     id="namedview8"
     showgrid="true"
     inkscape:zoom="22.627417"
     inkscape:cx="8.7232541"
     inkscape:cy="6.4209301"
     inkscape:window-x="0"
     inkscape:window-y="27"
     inkscape:window-maximized="1"
     inkscape:current-layer="svg6"
     inkscape:document-rotation="0"
     inkscape:snap-global="true">
    <inkscape:grid
       type="xygrid"
       id="grid822" />
  </sodipodi:namedview>
  <g
     style="fill:#000000;stroke-width:49.0066"
     transform="matrix(0.01999167,0,0,0.02082768,7.9468316,8.0273674)"
     id="g895">
    <path
       id="path899"
       d="m -16.50714,382.79016 h -1.33333 l 0.66666,-0.66667 0.66667,-0.66666 0.66667,0.66666 0.66666,0.66667 z m 6.41667,-0.0789 -1.91667,-0.0789 1.3125,-0.52522 1.3125,-0.52522 0.60417,0.60416 0.60416,0.60417 -1.91666,-0.0789 z m -10.41667,-0.9211 h -1.33333 l 0.66666,-0.66667 0.66667,-0.66666 0.66667,0.66666 0.66666,0.66667 z m 14.5,0 h -0.5 v -0.5 -0.5 h 0.5 0.5 v 0.5 0.5 z m -17,-1 h -0.5 v -0.5 -0.5 h 0.5 0.5 v 0.5 0.5 z m 19.44098,0 h -0.94098 v -0.39301 -0.39301 l 1.55194,-0.59554 1.55194,-0.59553 -0.61096,0.98854 -0.61095,0.98855 z m -21.38196,-1 h -0.44099 l -0.71352,-1.15451 -0.71353,-1.15451 1.15451,0.71353 1.15451,0.71352 v 0.44099 0.44098 z m 24.82295,-1 h -0.5 l 0.61803,-1 0.61803,-1 h 0.5 0.5 l -0.61803,1 -0.61803,1 z m 2.99559,-3 H 2.49286 v -0.37756 -0.37755 l 1.75,-1.37245 1.75,-1.37244 -1.37244,1.75 -1.37245,1.75 z m -34.87756,-2 h -0.5 v -0.5 -0.5 h 0.5 0.5 v 0.5 0.5 z m -3.94098,-4 h -0.44099 l -0.71352,-1.15451 -0.71353,-1.15451 1.15451,0.71353 1.15451,0.71352 v 0.44099 0.44098 z m 43.94098,-2 h -0.5 v -0.5 -0.5 h 0.5 0.5 v 0.5 0.5 z m -49,-3 h -0.5 v -0.5 -0.5 h 0.5 0.5 v 0.5 0.5 z m 50.20393,-1.73625 -0.43157,2.23625 0.0136,-5 0.0137,-5 0.41792,2.76375 0.41792,2.76375 z m -54.14491,-2.26375 h -0.44099 l -0.71352,-1.15451 -0.71353,-1.15451 1.15451,0.71353 1.15451,0.71352 v 0.44099 0.44098 z m -3.90403,-4 h -0.34501 l -1.90499,-2.25 -1.90499,-2.25 2.25,1.90499 2.25,1.90499 v 0.34501 0.34501 z m 57.01168,-3.33333 -0.66667,0.66666 v -1.33333 -1.33333 l 0.66667,0.66666 0.66666,0.66667 z m -61.91778,-1.66667 h -0.2511 l -169.4989,-169.75 -169.49889,-169.75 169.75,169.49889 169.75,169.4989 v 0.2511 0.25111 z m 60.75111,-1 h -0.5 v -0.5 -0.5 h 0.5 0.5 v 0.5 0.5 z m -1.94098,-3 H 4.61089 l -0.71352,-1.15451 -0.71353,-1.15451 1.15451,0.71353 1.15451,0.71352 v 0.44099 0.44098 z m -112.05902,-112 h -0.5 v -0.5 -0.5 h 0.5 0.5 v 0.5 0.5 z m -4,-4 h -0.5 v -0.5 -0.5 h 0.5 0.5 v 0.5 0.5 z m -5,-5 h -0.5 v -0.5 -0.5 h 0.5 0.5 v 0.5 0.5 z m -4,-4 h -0.5 v -0.5 -0.5 h 0.5 0.5 v 0.5 0.5 z m -3.94098,-4 h -0.44099 l -0.71352,-1.15451 -0.71353,-1.15451 1.15451,0.71353 1.15451,0.71352 v 0.44099 0.44098 z m -5.05902,-5 h -0.5 v -0.5 -0.5 h 0.5 0.5 v 0.5 0.5 z m -3.94098,-4 h -0.44099 l -0.71352,-1.15451 -0.71353,-1.15451 1.15451,0.71353 1.15451,0.71352 v 0.44099 0.44098 z m -5.05902,-5 h -0.5 v -0.5 -0.5 h 0.5 0.5 v 0.5 0.5 z m -3.94098,-4 h -0.44099 l -0.71352,-1.15451 -0.71353,-1.15451 1.15451,0.71353 1.15451,0.71352 v 0.44099 0.44098 z m -4,-4 h -0.44099 l -0.71352,-1.15451 -0.71353,-1.15451 1.15451,0.71353 1.15451,0.71352 v 0.44099 0.44098 z m -5,-5 h -0.44099 l -0.71352,-1.15451 -0.71353,-1.15451 1.15451,0.71353 1.15451,0.71352 v 0.44099 0.44098 z m -4,-4 h -0.44099 l -0.71352,-1.15451 -0.71353,-1.15451 1.15451,0.71353 1.15451,0.71352 v 0.44099 0.44098 z m -3.93658,-4 h -0.37755 l -1.37245,-1.75 -1.37244,-1.75 1.75,1.37244 1.75,1.37245 v 0.37755 0.37756 z m -5.06342,-5 h -0.44099 l -0.71352,-1.15451 -0.71353,-1.15451 1.15451,0.71353 1.15451,0.71352 v 0.44099 0.44098 z m -3.93658,-4 h -0.37755 l -1.37245,-1.75 -1.37244,-1.75 1.75,1.37244 1.75,1.37245 v 0.37755 0.37756 z m -5.06342,-5 h -0.44099 l -0.71352,-1.15451 -0.71353,-1.15451 1.15451,0.71353 1.15451,0.71352 v 0.44099 0.44098 z m -3.93658,-4 h -0.37755 l -1.37245,-1.75 -1.37244,-1.75 1.75,1.37244 1.75,1.37245 v 0.37755 0.37756 z m -4,-4 h -0.37755 l -1.37245,-1.75 -1.37244,-1.75 1.75,1.37244 1.75,1.37245 v 0.37755 0.37756 z m -5.06342,-5 h -0.44099 l -0.71352,-1.15451 -0.71353,-1.15451 1.15451,0.71353 1.15451,0.71352 v 0.44099 0.44098 z m -3.93658,-4 h -0.37755 l -1.37245,-1.75 -1.37244,-1.75 1.75,1.37244 1.75,1.37245 v 0.37755 0.37756 z m -5.06342,-5 h -0.44099 l -0.71352,-1.15451 -0.71353,-1.15451 1.15451,0.71353 1.15451,0.71352 v 0.44099 0.44098 z m -3.93658,-4 h -0.37755 l -1.37245,-1.75 -1.37244,-1.75 1.75,1.37244 1.75,1.37245 v 0.37755 0.37756 z m -4,-4 h -0.37755 l -1.37245,-1.75 -1.37244,-1.75 1.75,1.37244 1.75,1.37245 v 0.37755 0.37756 z m -5,-5 h -0.37755 l -1.37245,-1.75 -1.37244,-1.75 1.75,1.37244 1.75,1.37245 v 0.37755 0.37756 z m -4,-4 h -0.37755 l -1.37245,-1.75 -1.37244,-1.75 1.75,1.37244 1.75,1.37245 v 0.37755 0.37756 z m -3.96745,-4 h -0.34501 l -1.90499,-2.25 -1.90499,-2.25 2.25,1.90499 2.25,1.90499 v 0.34501 0.34501 z m -5.03255,-5 h -0.37755 l -1.37245,-1.75 -1.37244,-1.75 1.75,1.37244 1.75,1.37245 v 0.37755 0.37756 z m -3.96745,-4 h -0.34501 l -1.90499,-2.25 -1.90499,-2.25 2.25,1.90499 2.25,1.90499 v 0.34501 0.34501 z m -4.66323,-5 h -0.5 l -45.24588,-45.25408 -45.24588,-45.25407 v -0.74593 -0.74592 l 351.75,0.24859 351.75,0.24858 -351.49447,0.25283 -351.49447,0.25282 45.49035,45.49859 45.49035,45.49859 z m 616.00824,-92 h -1.33333 l 0.66666,-0.66667 0.66667,-0.66666 0.66667,0.66666 0.66666,0.66667 z m 2.5,-1 h -0.5 v -0.5 -0.5 h 0.5 0.5 v 0.5 0.5 z m 2,-1 h -0.5 v -0.5 -0.5 h 0.5 0.5 v 0.5 0.5 z m 1.81291,-1 h -0.31291 v -0.31291 -0.31291 l 3.25,-2.93709 3.25,-2.93709 -2.93709,3.25 -2.93709,3.25 z m -786.81291,-7 h -0.5 v -0.5 -0.5 h 0.5 0.5 v 0.5 0.5 z m 793.62409,-0.73333 -1.24258,1.23333 0.68278,-1.79313 0.68279,-1.79313 0.55979,0.5598 0.5598,0.55979 z M -395.00714,8.79016 h -0.5 v -0.5 -0.5 h 0.5 0.5 v 0.5 0.5 z m -1,-2 h -0.5 v -0.5 -0.5 h 0.5 0.5 v 0.5 0.5 z m 797,0 h -0.5 v -0.5 -0.5 h 0.5 0.5 v 0.5 0.5 z m -797.83333,-3.33333 -0.66667,0.66666 V 2.79016 1.45683 l 0.66667,0.66666 0.66666,0.66667 z m 799,0 -0.66667,0.66666 V 2.79016 1.45683 l 0.66667,0.66666 0.66666,0.66667 z m -799,-8 -0.66667,0.66666 v -1.33333 -1.33333 l 0.66667,0.66666 0.66666,0.66667 z m 799,0 -0.66667,0.66666 v -1.33333 -1.33333 l 0.66667,0.66666 0.66666,0.66667 z m -798.16667,-3.66667 h -0.5 v -0.5 -0.5 h 0.5 0.5 v 0.5 0.5 z m 797,0 h -0.5 v -0.5 -0.5 h 0.5 0.5 v 0.5 0.5 z m -796,-2 h -0.5 v -0.5 -0.5 h 0.5 0.5 v 0.5 0.5 z m 795,0 h -0.5 v -0.5 -0.5 h 0.5 0.5 v 0.5 0.5 z m -794,-2 h -0.5 v -0.5 -0.5 h 0.5 0.5 v 0.5 0.5 z m 793,0 h -0.5 v -0.5 -0.5 h 0.5 0.5 v 0.5 0.5 z m -791.49551,-3 h -0.5 l 83.49551,-83.5 83.49551,-83.5 h 0.5 0.5 l -83.49551,83.5 -83.49551,83.5 z m 789.6505,0 h -0.34501 l -1.90499,-2.25 -1.90499,-2.25 2.25,1.90499 2.25,1.90499 v 0.34501 0.34501 z m -5.09597,-4 h -0.44099 l -0.71352,-1.15451 -0.71353,-1.15451 1.15451,0.71353 1.15451,0.71352 v 0.44099 0.44098 z m -3.55902,-2 h -1.33333 l 0.66666,-0.66667 0.66667,-0.66666 0.66667,0.66666 0.66666,0.66667 z m -2.5,-1 h -0.5 v -0.5 -0.5 h 0.5 0.5 v 0.5 0.5 z m -706.10699,-1 h -0.39301 v -0.94098 -0.94099 l 0.98855,-0.61095 0.98854,-0.61096 -0.59553,1.55194 -0.59554,1.55194 z m 95.70109,-160 h -0.5 l 3.9059,-4 3.9059,-4 h 0.5 0.5 l -3.9059,4 -3.9059,4 z m 9.28346,-9 h -0.37756 v -0.37756 -0.37755 l 1.75,-1.37245 1.75,-1.37244 -1.37244,1.75 -1.37245,1.75 z m 3.81246,-4 h -0.5 l 1.80998,-2 1.80998,-2 h 0.5 0.5 l -1.80998,2 -1.80998,2 z m 5.18754,-5 h -0.37756 v -0.37756 -0.37755 l 1.75,-1.37245 1.75,-1.37244 -1.37244,1.75 -1.37245,1.75 z m 4,-4 h -0.37756 v -0.37756 -0.37755 l 1.75,-1.37245 1.75,-1.37244 -1.37244,1.75 -1.37245,1.75 z m 5,-5 h -0.37756 v -0.37756 -0.37755 l 1.75,-1.37245 1.75,-1.37244 -1.37244,1.75 -1.37245,1.75 z m 5.00441,-5 h -0.5 l 0.61803,-1 0.61803,-1 h 0.5 0.5 l -0.61803,1 -0.61803,1 z m 4,-4 h -0.5 l 0.61803,-1 0.61803,-1 h 0.5 0.5 l -0.61803,1 -0.61803,1 z m 5,-5 h -0.5 l 0.61803,-1 0.61803,-1 h 0.5 0.5 l -0.61803,1 -0.61803,1 z m 4,-4 h -0.5 l 0.61803,-1 0.61803,-1 h 0.5 0.5 l -0.61803,1 -0.61803,1 z m 6.11803,-6 h -0.5 v -0.5 -0.5 h 0.5 0.5 v 0.5 0.5 z m 77.5075,-14 h -0.5 l 49.9925,-50 49.9925,-50 h 0.5 0.5 l -49.9925,50 -49.9925,50 z m 101.4925,-102 h -0.5 v -0.5 -0.5 h 0.5 0.5 v 0.5 0.5 z m 1,-2 h -0.5 v -0.5 -0.5 h 0.5 0.5 v 0.5 0.5 z m 1,-2 h -0.5 v -0.5 -0.5 h 0.5 0.5 v 0.5 0.5 z m 1.10417,-3.27083 -0.60417,0.60416 0.079,-1.91666 0.0789,-1.91667 0.52522,1.3125 0.52522,1.3125 -0.60416,0.60417 z m 0,-8 -0.60417,0.60416 0.079,-1.91666 0.0789,-1.91667 0.52522,1.3125 0.52522,1.3125 -0.60416,0.60417 z m -1.10417,-4.72917 h -0.5 v -0.5 -0.5 h 0.5 0.5 v 0.5 0.5 z m -1,-2 h -0.5 v -0.5 -0.5 h 0.5 0.5 v 0.5 0.5 z m -0.94098,-2 H 5.61089 l -0.71352,-1.15451 -0.71353,-1.15451 1.15451,0.71353 1.15451,0.71352 v 0.44099 0.44098 z m -35.369,-3 h -0.5 l 1.80998,-2 1.80998,-2 h 0.5 0.5 l -1.80998,2 -1.80998,2 z m 29.369,-3 h -0.44099 l -0.71352,-1.15451 -0.71353,-1.15451 1.15451,0.71353 1.15451,0.71352 v 0.44099 0.44098 z m -23.26589,-1.56429 -1.79313,0.68278 1.23333,-1.24258 1.23334,-1.24258 0.55979,0.5598 0.5598,0.55979 z m 20.20687,-0.43571 h -0.5 v -0.5 -0.5 h 0.5 0.5 v 0.5 0.5 z m -17,-1 h -0.5 v -0.5 -0.5 h 0.5 0.5 v 0.5 0.5 z m 14,0 h -0.5 v -0.5 -0.5 h 0.5 0.5 v 0.5 0.5 z m -9.08333,-1.07895 -1.91667,-0.079 1.3125,-0.52522 1.3125,-0.52521 0.60417,0.60416 0.60416,0.60417 z m 4.58333,-0.0789 h -2.5 l 1.25,-0.50439 1.25,-0.50439 1.25,0.50439 1.25,0.50439 z"
       style="fill:#000000;fill-opacity:1;stroke-width:49.0066" />
    <path
       id="path897"
       d="m -11.00714,382.12309 -4,0.57261 -5,-1.5238 -5,-1.52379 -183.81825,-183.67898 -183.81825,-183.67897 -2.12727,-4 -2.12727,-4 v -5.5 -5.5 l 2.12623,-4 2.12622,-4 182.8193,-182.65262 182.81929,-182.65263 4.35017,-2.1688 4.35018,-2.16881 5.14982,5.3e-4 5.14983,5.3e-4 2.88061,1.0958 2.8806,1.09581 2.86554,2.04044 2.86553,2.04044 2.69136,4.59246 2.69136,4.59245 -0.0175,6.0922 -0.0175,6.0922 -2.10139,4 -2.1014,4 -162.56864,162.48661 -162.56857,162.48661 v 0.26339 0.26339 H 31.87074 384.24861 l 3.5014,1.46298 3.50141,1.46298 3.16457,2.66281 3.16457,2.66281 2.15167,4.12421 2.15167,4.12421 v 5.5 5.5 l -2.10394,4 -2.10393,4 -2.84159,2.69695 -2.84158,2.69695 -3.71788,1.55305 -3.71788,1.55305 H 32.02498 -320.50714 v 0.83038 0.83038 l 161.39548,160.71505 161.39548,160.71505 2.81387,4.06041 2.81386,4.0604 0.40085,6.29525 0.40085,6.29525 -1.11202,3.34891 -1.11203,3.34892 -3.05874,3.26058 -3.05874,3.26057 -3.68943,1.86959 -3.68943,1.86959 z"
       style="fill:#000000;fill-opacity:1;stroke-width:49.0066" />
  </g>
</svg>
