<?xml version="1.0" encoding="UTF-8" standalone="no"?>
<svg
   xmlns:dc="http://purl.org/dc/elements/1.1/"
   xmlns:cc="http://creativecommons.org/ns#"
   xmlns:rdf="http://www.w3.org/1999/02/22-rdf-syntax-ns#"
   xmlns:svg="http://www.w3.org/2000/svg"
   xmlns="http://www.w3.org/2000/svg"
   xmlns:sodipodi="http://sodipodi.sourceforge.net/DTD/sodipodi-0.dtd"
   xmlns:inkscape="http://www.inkscape.org/namespaces/inkscape"
   height="16"
   width="16"
   version="1.1"
   id="svg6"
   sodipodi:docname="large-font-symbolic.svg"
   inkscape:version="1.0 (4035a4fb49, 2020-05-01)">
  <metadata
     id="metadata12">
    <rdf:RDF>
      <cc:Work
         rdf:about="">
        <dc:format>image/svg+xml</dc:format>
        <dc:type
           rdf:resource="http://purl.org/dc/dcmitype/StillImage" />
        <dc:title />
      </cc:Work>
    </rdf:RDF>
  </metadata>
  <defs
     id="defs10" />
  <sodipodi:namedview
     pagecolor="#ffffff"
     bordercolor="#666666"
     borderopacity="1"
     objecttolerance="10"
     gridtolerance="10"
     guidetolerance="10"
     inkscape:pageopacity="0"
     inkscape:pageshadow="2"
     inkscape:window-width="2560"
     inkscape:window-height="1016"
     id="namedview8"
     showgrid="true"
     inkscape:zoom="41.7193"
     inkscape:cx="10.924175"
     inkscape:cy="7.2764326"
     inkscape:window-x="0"
     inkscape:window-y="27"
     inkscape:window-maximized="1"
     inkscape:current-layer="svg6"
     inkscape:document-rotation="0"
     inkscape:snap-global="true">
    <inkscape:grid
       type="xygrid"
       id="grid822" />
  </sodipodi:namedview>
  <g
     aria-label="a"
     id="text848"
     style="font-size:14.3973px;line-height:1.25;font-family:Inter;-inkscape-font-specification:Inter;stroke-width:0.653478"
     transform="matrix(1.5036881,0,0,1.5573212,-4.1761315,-8.7439036)">
    <path
       d="m 8.8426841,10.362316 c -1.0448283,-0.02341 -1.7691994,0.119509 -2.1722488,0.358527 -0.4030495,0.239017 -0.6045742,0.646753 -0.6045742,1.223208 0,0.459289 0.1499719,0.824845 0.4499157,1.096669 0.3046303,0.267137 0.717053,0.400706 1.2372679,0.400706 0.717053,0 1.2911641,-0.253078 1.7223332,-0.759233 0.4358561,-0.510841 0.6537841,-1.188058 0.6537841,-2.03165 l -0.03165,-0.260107 z M 11.422669,9.8280413 v 4.7764627 h -1.053754 v -1.194116 c -1.0537533,1.194116 -2.0110511,0.985264 -2.9603399,1.113648 -0.8060989,0 -1.448166,-0.224958 -1.9262013,-0.674874 C 5.0090281,13.39456 4.7723537,12.787643 4.7723537,12.02841 c 0,-0.885771 0.2952571,-1.553615 0.8857714,-2.003531 C 6.253326,9.5749637 7.1390973,9.350006 8.3154392,9.350006 H 10.129162 V 9.2234672 c 0,-0.5952009 -0.1968382,-1.0544897 -0.5905147,-1.3778666 C 9.1496578,7.5175371 8.6013231,7.3535054 7.8936433,7.3535054 c -0.4499156,0 -0.8881147,0.053896 -1.3145972,0.1616884 C 6.1525636,7.6229861 5.4911875,7.8990094 5.0975113,8.114594 V 7.0396592 C 5.57086,6.856881 6.2814457,6.4864805 6.7266747,6.3974347 7.1719037,6.3037023 7.6054161,6.2568361 8.027212,6.2568361 c 1.1388489,0 1.989471,0.2952571 2.551865,0.8857714 0.562395,0.5905142 0.843592,1.4856588 0.843592,2.6854338 z"
       style="font-style:normal;font-variant:normal;font-weight:normal;font-stretch:normal;font-family:'DejaVu Sans';-inkscape-font-specification:'DejaVu Sans';stroke-width:0.653478"
       id="path868"
       sodipodi:nodetypes="ssscscscsscccccscscscsscccsss" />
  </g>
</svg>
