<?xml version="1.0" encoding="UTF-8" standalone="no"?>
<svg
   xmlns:dc="http://purl.org/dc/elements/1.1/"
   xmlns:cc="http://creativecommons.org/ns#"
   xmlns:rdf="http://www.w3.org/1999/02/22-rdf-syntax-ns#"
   xmlns:svg="http://www.w3.org/2000/svg"
   xmlns="http://www.w3.org/2000/svg"
   xmlns:sodipodi="http://sodipodi.sourceforge.net/DTD/sodipodi-0.dtd"
   xmlns:inkscape="http://www.inkscape.org/namespaces/inkscape"
   inkscape:version="1.0 (4035a4fb49, 2020-05-01)"
   sodipodi:docname="outline-symbolic.svg"
   id="svg6"
   version="1.1"
   width="16"
   height="16">
  <metadata
     id="metadata12">
    <rdf:RDF>
      <cc:Work
         rdf:about="">
        <dc:format>image/svg+xml</dc:format>
        <dc:type
           rdf:resource="http://purl.org/dc/dcmitype/StillImage" />
      </cc:Work>
    </rdf:RDF>
  </metadata>
  <defs
     id="defs10" />
  <sodipodi:namedview
     inkscape:document-rotation="0"
     inkscape:current-layer="svg6"
     inkscape:window-maximized="1"
     inkscape:window-y="0"
     inkscape:window-x="0"
     inkscape:cy="7.2764326"
     inkscape:cx="7.5444438"
     inkscape:zoom="41.7193"
     showgrid="true"
     id="namedview8"
     inkscape:window-height="1020"
     inkscape:window-width="2560"
     inkscape:pageshadow="2"
     inkscape:pageopacity="0"
     guidetolerance="10"
     gridtolerance="10"
     objecttolerance="10"
     borderopacity="1"
     bordercolor="#666666"
     pagecolor="#ffffff">
    <inkscape:grid
       id="grid822"
       type="xygrid" />
  </sodipodi:namedview>
  <path
     inkscape:connector-curvature="0"
     id="path832"
     d="m 9,7 v 1 h 4.998047 V 7 Z"
     style="color:#bebebe;overflow:visible;fill:#000000;stroke-width:0.99999994;marker:none" />
  <path
     inkscape:connector-curvature="0"
     id="path830"
     d="m 5.5029435,6 c -0.277,0 -0.5,0.223 -0.5,0.5 v 2 c 0,0.277 0.223,0.5 0.5,0.5 h 2 c 0.277,0 0.5,-0.223 0.5,-0.5 v -2 c 0,-0.277 -0.223,-0.5 -0.5,-0.5 z"
     style="color:#bebebe;overflow:visible;fill:#000000;marker:none" />
  <path
     id="path828"
     d="M 4.9980469 3 L 4.9980469 4 L 13.998047 4 L 13.998047 3 L 4.9980469 3 z "
     style="color:#bebebe;overflow:visible;fill:#000000;marker:none" />
  <path
     id="path2"
     d="M 1.4980469 2 C 1.2210469 2 0.99804688 2.223 0.99804688 2.5 L 0.99804688 4.5 C 0.99804688 4.777 1.2210469 5 1.4980469 5 L 3.4980469 5 C 3.7750469 5 3.9980469 4.777 3.9980469 4.5 L 3.9980469 2.5 C 3.9980469 2.223 3.7750469 2 3.4980469 2 L 1.4980469 2 z "
     style="color:#bebebe;overflow:visible;fill:#000000;marker:none" />
  <path
     inkscape:connector-curvature="0"
     id="path832-3"
     d="m 9,11 v 1 h 4.998047 v -1 z"
     style="color:#bebebe;overflow:visible;fill:#000000;stroke-width:0.99999994;marker:none" />
  <path
     inkscape:connector-curvature="0"
     id="path830-6"
     d="m 5.5029435,10 c -0.277,0 -0.5,0.223 -0.5,0.5 v 2 c 0,0.277 0.223,0.5 0.5,0.5 h 2 c 0.277,0 0.5,-0.223 0.5,-0.5 v -2 c 0,-0.277 -0.223,-0.5 -0.5,-0.5 z"
     style="color:#bebebe;overflow:visible;fill:#000000;marker:none" />
</svg>
