<?xml version="1.0" encoding="UTF-8" standalone="no"?>
<svg
   xmlns:dc="http://purl.org/dc/elements/1.1/"
   xmlns:cc="http://creativecommons.org/ns#"
   xmlns:rdf="http://www.w3.org/1999/02/22-rdf-syntax-ns#"
   xmlns:svg="http://www.w3.org/2000/svg"
   xmlns="http://www.w3.org/2000/svg"
   xmlns:xlink="http://www.w3.org/1999/xlink"
   xmlns:sodipodi="http://sodipodi.sourceforge.net/DTD/sodipodi-0.dtd"
   xmlns:inkscape="http://www.inkscape.org/namespaces/inkscape"
   viewBox="0 0 48 48"
   version="1.1"
   id="svg176"
   sodipodi:docname="com.github.lainsce.quilter.svg"
   inkscape:version="1.0.1 (3bc2e813f5, 2020-09-07)">
  <metadata
     id="metadata180">
    <rdf:RDF>
      <cc:Work
         rdf:about="">
        <dc:format>image/svg+xml</dc:format>
        <dc:type
           rdf:resource="http://purl.org/dc/dcmitype/StillImage" />
      </cc:Work>
    </rdf:RDF>
  </metadata>
  <sodipodi:namedview
     pagecolor="#ffffff"
     bordercolor="#666666"
     borderopacity="1"
     objecttolerance="10"
     gridtolerance="10"
     guidetolerance="10"
     inkscape:pageopacity="0"
     inkscape:pageshadow="2"
     inkscape:window-width="1415"
     inkscape:window-height="946"
     id="namedview178"
     showgrid="false"
     inkscape:zoom="15.3125"
     inkscape:cx="24"
     inkscape:cy="24"
     inkscape:window-x="26"
     inkscape:window-y="23"
     inkscape:window-maximized="0"
     inkscape:current-layer="svg176"
     inkscape:document-rotation="0" />
  <defs
     id="defs2" />
  <defs
     id="defs136">
    <linearGradient
       id="r">
      <stop
         offset="0"
         stop-color="#f7f7f7"
         id="stop4" />
      <stop
         offset="1"
         stop-color="#e6e6e6"
         id="stop6" />
    </linearGradient>
    <linearGradient
       id="k">
      <stop
         offset="0"
         stop-opacity=".34"
         id="stop9" />
      <stop
         offset="1"
         stop-opacity=".09"
         id="stop11" />
    </linearGradient>
    <linearGradient
       id="o">
      <stop
         offset="0"
         stop-color="#fea"
         id="stop14" />
      <stop
         offset="1"
         stop-color="#ffd42a"
         id="stop16" />
    </linearGradient>
    <linearGradient
       id="e">
      <stop
         offset="0"
         stop-color="#d5d5d5"
         id="stop19" />
      <stop
         offset=".06"
         stop-color="#fff"
         stop-opacity=".24"
         id="stop21" />
      <stop
         offset=".95"
         stop-color="#fff"
         stop-opacity=".16"
         id="stop23" />
      <stop
         offset="1"
         stop-color="#d6d6d6"
         stop-opacity=".39"
         id="stop25" />
    </linearGradient>
    <linearGradient
       id="d">
      <stop
         offset="0"
         stop-color="#55c1ec"
         id="stop28" />
      <stop
         offset="1"
         stop-color="#3689e6"
         id="stop30" />
    </linearGradient>
    <linearGradient
       id="j">
      <stop
         offset="0"
         stop-color="#fff"
         id="stop33" />
      <stop
         offset=".06"
         stop-color="#fff"
         stop-opacity=".24"
         id="stop35" />
      <stop
         offset=".95"
         stop-color="#fff"
         stop-opacity=".16"
         id="stop37" />
      <stop
         offset="1"
         stop-color="#fff"
         stop-opacity=".39"
         id="stop39" />
    </linearGradient>
    <linearGradient
       id="a">
      <stop
         offset="0"
         stop-color="#181818"
         id="stop42" />
      <stop
         offset="1"
         stop-color="#181818"
         stop-opacity="0"
         id="stop44" />
    </linearGradient>
    <linearGradient
       id="b">
      <stop
         offset="0"
         stop-color="#181818"
         id="stop47" />
      <stop
         offset="1"
         stop-color="#181818"
         stop-opacity="0"
         id="stop49" />
    </linearGradient>
    <linearGradient
       id="c">
      <stop
         offset="0"
         stop-color="#181818"
         stop-opacity="0"
         id="stop52" />
      <stop
         offset=".5"
         stop-color="#181818"
         id="stop54" />
      <stop
         offset="1"
         stop-color="#181818"
         stop-opacity="0"
         id="stop56" />
    </linearGradient>
    <linearGradient
       id="f">
      <stop
         offset="0"
         stop-color="#fafafa"
         id="stop59" />
      <stop
         offset="1"
         stop-color="#e1e1e1"
         id="stop61" />
    </linearGradient>
    <linearGradient
       id="h">
      <stop
         offset="0"
         stop-color="#e9e9e9"
         id="stop64" />
      <stop
         offset="1"
         stop-color="#fff"
         id="stop66" />
    </linearGradient>
    <linearGradient
       id="g">
      <stop
         offset="0"
         stop-color="#fff"
         id="stop69" />
      <stop
         offset=".51"
         stop-color="#fff"
         stop-opacity=".24"
         id="stop71" />
      <stop
         offset=".83"
         stop-color="#fff"
         stop-opacity=".16"
         id="stop73" />
      <stop
         offset="1"
         stop-color="#fff"
         stop-opacity=".39"
         id="stop75" />
    </linearGradient>
    <linearGradient
       id="i">
      <stop
         offset="0"
         id="stop78" />
      <stop
         offset="1"
         stop-opacity="0"
         id="stop80" />
    </linearGradient>
    <linearGradient
       id="l">
      <stop
         offset="0"
         stop-color="#fff"
         id="stop83" />
      <stop
         offset="0"
         stop-color="#fff"
         stop-opacity=".24"
         id="stop85" />
      <stop
         offset="1"
         stop-color="#fff"
         stop-opacity=".16"
         id="stop87" />
      <stop
         offset="1"
         stop-color="#fff"
         stop-opacity=".39"
         id="stop89" />
    </linearGradient>
    <linearGradient
       id="m">
      <stop
         offset="0"
         stop-color="#f4f4f4"
         id="stop92" />
      <stop
         offset="1"
         stop-color="#dbdbdb"
         id="stop94" />
    </linearGradient>
    <linearGradient
       id="n">
      <stop
         offset="0"
         stop-opacity="0"
         id="stop97" />
      <stop
         offset=".5"
         id="stop99" />
      <stop
         offset="1"
         stop-opacity="0"
         id="stop101" />
    </linearGradient>
    <linearGradient
       id="x"
       x1="14.56"
       x2="17.69"
       y1="27.1"
       y2="22.47"
       gradientUnits="userSpaceOnUse"
       xlink:href="#o"
       gradientTransform="matrix(1.2246,0,0,1.2246,10.1704,5.1709063)" />
    <linearGradient
       id="y"
       x1="-561.3"
       x2="-561.3"
       y1="-222.03"
       y2="-229.81"
       gradientTransform="matrix(0.31561616,-0.46315597,0.45855147,0.31878787,319.11249,-165.04849)"
       gradientUnits="userSpaceOnUse">
      <stop
         offset="0"
         stop-color="#3689e6"
         id="stop105" />
      <stop
         offset=".32"
         stop-color="#8cd5ff"
         id="stop107" />
      <stop
         offset="1"
         stop-color="#3689e6"
         id="stop109" />
    </linearGradient>
    <linearGradient
       id="z"
       x1="-549.18"
       x2="-549.18"
       y1="-222.03"
       y2="-229.81"
       gradientTransform="matrix(0.31561616,-0.46315597,0.45855147,0.31878787,319.11249,-165.04849)"
       gradientUnits="userSpaceOnUse">
      <stop
         offset="0"
         stop-color="#3689e6"
         id="stop112" />
      <stop
         offset=".32"
         stop-color="#8cd5ff"
         id="stop114" />
      <stop
         offset="1"
         stop-color="#3689e6"
         id="stop116" />
    </linearGradient>
    <linearGradient
       id="q">
      <stop
         offset="0"
         stop-color="#586e75"
         id="stop119" />
      <stop
         offset="1"
         stop-color="#073642"
         id="stop121" />
    </linearGradient>
    <linearGradient
       id="p">
      <stop
         offset="0"
         stop-color="#fdf6e3"
         id="stop124" />
      <stop
         offset="1"
         stop-color="#eee8d5"
         id="stop126" />
    </linearGradient>
    <linearGradient
       id="u"
       x1="24"
       x2="24"
       y1="-3.45"
       y2="41.9"
       gradientTransform="matrix(1.05004 -.09187 .07302 .83465 1.12 10.03)"
       gradientUnits="userSpaceOnUse"
       xlink:href="#l" />
    <linearGradient
       id="t"
       x1="21.24"
       x2="24.93"
       y1="3.79"
       y2="44.27"
       gradientUnits="userSpaceOnUse"
       xlink:href="#r"
       gradientTransform="matrix(0.98765454,0,0,1.0064046,0.08764894,0.13494508)" />
    <radialGradient
       id="v"
       cx="32"
       cy="59.5"
       r="28"
       fx="32"
       fy="59.5"
       gradientTransform="matrix(.85714 0 0 .08929 -3.43 40.19)"
       gradientUnits="userSpaceOnUse"
       xlink:href="#i" />
    <radialGradient
       id="s"
       cx="19.53"
       cy="40.43"
       r="23.93"
       fx="19.53"
       fy="40.43"
       gradientTransform="matrix(.7522 0 0 .06268 9.86 43.03)"
       gradientUnits="userSpaceOnUse"
       xlink:href="#i" />
    <filter
       id="w"
       width="1.09"
       height="1.06"
       x="-.04"
       y="-.03"
       color-interpolation-filters="sRGB">
      <feGaussianBlur
         stdDeviation=".28"
         id="feGaussianBlur133" />
    </filter>
  </defs>
  <path
     fill="url(#s)"
     style="marker:none"
     d="M42.55 45.57a18 1.5 0 01-36 0 18 1.5 0 1136 0z"
     color="#000"
     enable-background="accumulate"
     opacity=".2"
     overflow="visible"
     id="path138" />
  <path
     fill="url(#t)"
     stroke="#555761"
     stroke-linejoin="round"
     stroke-opacity=".5"
     d="M 5.4999958,5.3883771 37.974077,2.4999959 41.500004,43.60156 9.0259225,46.500005 Z"
     id="path140"
     style="fill:url(#t);stroke:#0e141f;stroke-width:1;stroke-miterlimit:4;stroke-dasharray:none;stroke-opacity:0.38" />
  <ellipse
     cx="24"
     cy="45.5"
     fill="url(#v)"
     opacity=".1"
     rx="24"
     ry="2.5"
     id="ellipse144" />
  <rect
     width="19.614965"
     height="1.1931721"
     x="9.5695982"
     y="15.721745"
     fill="#273445"
     ry="0"
     transform="matrix(0.99573764,-0.09223094,0.06177372,0.99809018,0,0)"
     id="rect146"
     style="stroke-width:2.00046;stroke-miterlimit:4;stroke-dasharray:none" />
  <rect
     width="22.557325"
     height="1.1045896"
     x="9.7024136"
     y="20.753597"
     fill="#273445"
     ry="0"
     transform="matrix(0.99645559,-0.08412051,0.06197234,0.99807787,0,0)"
     id="rect148"
     style="stroke-width:2.00025;stroke-miterlimit:4;stroke-dasharray:none" />
  <rect
     width="20.000561"
     height="1.1472697"
     x="9.8561611"
     y="25.651253"
     fill="#c6c7ca"
     ry="0"
     transform="matrix(0.9962125,-0.08695207,0.06553947,0.99784998,0,0)"
     id="rect150"
     style="stroke-width:2.00023;stroke-miterlimit:4;stroke-dasharray:none;fill:#abacae" />
  <rect
     width="16.519217"
     height="1.1821982"
     x="10.461181"
     y="30.945354"
     fill="#c6c7ca"
     ry="0"
     transform="matrix(0.99466875,-0.10312171,0.05508494,0.99848167,0,0)"
     id="rect152"
     style="stroke-width:2.00118;stroke-miterlimit:4;stroke-dasharray:none;fill:#abacae" />
  <rect
     width="17.045238"
     height="1.3484156"
     x="10.65135"
     y="36.223373"
     fill="#c6c7ca"
     ry="0"
     transform="matrix(0.99497947,-0.10007921,0.05251099,0.99862035,0,0)"
     id="rect154"
     style="stroke-width:2.00114;stroke-miterlimit:4;stroke-dasharray:none;fill:#abacae" />
  <rect
     width="20.045214"
     height="1.2140449"
     x="10.450233"
     y="41.228909"
     fill="#c6c7ca"
     ry="0"
     transform="matrix(0.99577483,-0.09182856,0.06204566,0.99807331,0,0)"
     id="rect156"
     style="stroke-width:2.00045;stroke-miterlimit:4;stroke-dasharray:none;fill:#abacae" />
  <rect
     width="20.006771"
     height="1.1932647"
     x="9.3655634"
     y="10.677204"
     fill="#c6c7ca"
     ry="0"
     transform="matrix(0.99590329,-0.09042472,0.06301322,0.99801269,0,0)"
     id="rect158"
     style="stroke-width:2.00038;stroke-miterlimit:4;stroke-dasharray:none;fill:#abacae" />
  <g
     stroke-width="0.82"
     filter="url(#w)"
     opacity="0.17"
     transform="matrix(1.2246,0,0,1.2246,9.9283302,6.9903382)"
     id="g166">
    <path
       d="m 17.52,24.5 c -1.17,1.72 -2.82,2.64 -2.94,2.56 -0.1,-0.07 0.14,-1.97 1.32,-3.7 1.18,-1.72 2.48,-2.88 2.94,-2.56 0.46,0.32 -0.14,1.97 -1.32,3.7 z"
       id="path160" />
    <path
       d="m 23.57,16.98 c 3.14,-4.6 5.27,-8.79 5.21,-10.1 V 6.75 L 28.74,6.67 A 0.46,0.46 0 0 0 28.69,6.57 L 28.67,6.55 28.65,6.53 28.63,6.52 28.62,6.51 28.59,6.49 H 28.56 A 0.44,0.44 0 0 0 28.45,6.47 h -0.08 c -0.04,0 -0.09,0.02 -0.13,0.04 -1.23,0.41 -4.34,3.92 -7.47,8.52 a 59.33,59.33 0 0 0 -4.1,6.85 l 2.03,1.4 a 56.22,56.22 0 0 0 4.29,-5.45 z"
       id="path162" />
    <path
       d="m 25.86,13.85 c 2.65,-3.89 4.34,-7.5 4.16,-8.7 L 30,5.12 V 5.07 L 29.96,5 29.95,4.96 A 0.56,0.56 0 0 0 29.9,4.89 L 29.88,4.86 29.84,4.83 H 29.83 L 29.81,4.81 29.77,4.78 H 29.74 A 0.63,0.63 0 0 0 29.65,4.76 h -0.12 -0.04 l -0.05,0.01 c -1.17,0.26 -3.9,3.14 -6.55,7.03 -0.56,0.81 -1.07,1.62 -1.53,2.39 l 2.83,1.96 c 0.38,-0.5 0.79,-1.03 1.18,-1.58 l 0.48,-0.71 z"
       id="path164" />
  </g>
  <path
     fill="url(#x)"
     stroke="#f9c440"
     d="m 31.625392,35.173606 c -1.432782,2.106312 -3.453372,3.232944 -3.600324,3.134976 -0.12246,-0.08572 0.171444,-2.412462 1.616472,-4.53102 1.445028,-2.106312 3.037008,-3.526848 3.600324,-3.134976 0.563316,0.391872 -0.171444,2.412462 -1.616472,4.53102 z"
     id="path168"
     style="fill:url(#x);stroke-width:1;stroke-miterlimit:4;stroke-dasharray:none;stroke-opacity:0.86;stroke:#d48e15" />
  <path
     fill="url(#y)"
     stroke="#0d52bf"
     d="m 39.034222,25.964614 c 3.845244,-5.63316 6.453642,-10.764234 6.380166,-12.36846 v -0.159198 l -0.04898,-0.09797 a 0.563316,0.563316 0 0 0 -0.06123,-0.12246 l -0.02449,-0.02449 -0.02449,-0.02449 -0.02449,-0.01225 -0.01225,-0.01225 -0.03674,-0.02449 h -0.03674 a 0.538824,0.538824 0 0 0 -0.134706,-0.02449 h -0.09797 c -0.04898,0 -0.110214,0.02449 -0.159198,0.04898 -1.506258,0.502086 -5.314764,4.800432 -9.147762,10.433592 a 72.655518,72.655518 0 0 0 -5.02086,8.38851 l 2.485938,1.71444 a 68.847012,68.847012 0 0 0 5.253534,-6.67407 z"
     id="path170"
     style="fill:url(#y);stroke-width:1;stroke-miterlimit:4;stroke-dasharray:none;stroke-opacity:0.86;stroke:#3689e6" />
  <path
     fill="url(#z)"
     stroke="#0d52bf"
     d="m 41.838556,22.131616 c 3.24519,-4.763694 5.314764,-9.1845 5.094336,-10.65402 l -0.02449,-0.03674 v -0.06123 l -0.04898,-0.08572 -0.01225,-0.04898 A 0.685776,0.685776 0 0 0 46.78594,11.1592 L 46.76145,11.12246 46.71247,11.08572 H 46.70022 L 46.67573,11.06123 46.62675,11.02449 H 46.59001 A 0.771498,0.771498 0 0 0 46.479796,11 h -0.146952 -0.04898 l -0.06123,0.01225 c -1.432782,0.318396 -4.77594,3.845244 -8.02113,8.608938 -0.685776,0.991926 -1.310322,1.983852 -1.873638,2.926794 l 3.465618,2.400216 c 0.465348,-0.6123 0.967434,-1.261338 1.445028,-1.934868 l 0.587808,-0.869466 z"
     id="path172"
     style="fill:url(#z);stroke-width:1;stroke-miterlimit:4;stroke-dasharray:none;stroke-opacity:0.86;stroke:#3689e6" />
</svg>
