<?xml version="1.0" encoding="UTF-8" standalone="no"?>
<svg
   xmlns:dc="http://purl.org/dc/elements/1.1/"
   xmlns:cc="http://creativecommons.org/ns#"
   xmlns:rdf="http://www.w3.org/1999/02/22-rdf-syntax-ns#"
   xmlns:svg="http://www.w3.org/2000/svg"
   xmlns="http://www.w3.org/2000/svg"
   xmlns:xlink="http://www.w3.org/1999/xlink"
   xmlns:sodipodi="http://sodipodi.sourceforge.net/DTD/sodipodi-0.dtd"
   xmlns:inkscape="http://www.inkscape.org/namespaces/inkscape"
   viewBox="0 0 128 128"
   version="1.1"
   id="svg180"
   sodipodi:docname="com.github.lainsce.quilter.svg"
   inkscape:version="1.0.1 (3bc2e813f5, 2020-09-07)">
  <metadata
     id="metadata184">
    <rdf:RDF>
      <cc:Work
         rdf:about="">
        <dc:format>image/svg+xml</dc:format>
        <dc:type
           rdf:resource="http://purl.org/dc/dcmitype/StillImage" />
      </cc:Work>
    </rdf:RDF>
  </metadata>
  <sodipodi:namedview
     pagecolor="#ffffff"
     bordercolor="#666666"
     borderopacity="1"
     objecttolerance="10"
     gridtolerance="10"
     guidetolerance="10"
     inkscape:pageopacity="0"
     inkscape:pageshadow="2"
     inkscape:window-width="1415"
     inkscape:window-height="946"
     id="namedview182"
     showgrid="false"
     inkscape:zoom="6.8359375"
     inkscape:cx="92.16"
     inkscape:cy="64"
     inkscape:window-x="26"
     inkscape:window-y="23"
     inkscape:window-maximized="0"
     inkscape:current-layer="svg180"
     inkscape:document-rotation="0" />
  <defs
     id="defs2">
    <linearGradient
       inkscape:collect="always"
       xlink:href="#q"
       id="linearGradient1009"
       gradientUnits="userSpaceOnUse"
       x1="-65.91"
       y1="7.69"
       x2="-54.76"
       y2="115.17"
       gradientTransform="translate(121.04,0.18)" />
    <linearGradient
       inkscape:collect="always"
       xlink:href="#q"
       id="linearGradient1011"
       gradientUnits="userSpaceOnUse"
       x1="-65.91"
       y1="7.69"
       x2="-54.76"
       y2="115.17"
       gradientTransform="matrix(0.99977783,0,0,1.0030796,120.61609,0.08798944)" />
  </defs>
  <defs
     id="defs132">
    <linearGradient
       id="q">
      <stop
         offset="0"
         stop-color="#fafafa"
         id="stop4" />
      <stop
         offset="1"
         stop-color="#e6e6e6"
         id="stop6" />
    </linearGradient>
    <linearGradient
       id="m">
      <stop
         offset="0"
         stop-color="#fea"
         id="stop9" />
      <stop
         offset="1"
         stop-color="#ffd42a"
         id="stop11" />
    </linearGradient>
    <linearGradient
       id="e">
      <stop
         offset="0"
         stop-color="#d5d5d5"
         id="stop14" />
      <stop
         offset=".06"
         stop-color="#fff"
         stop-opacity=".24"
         id="stop16" />
      <stop
         offset=".95"
         stop-color="#fff"
         stop-opacity=".16"
         id="stop18" />
      <stop
         offset="1"
         stop-color="#9c9c9c"
         stop-opacity=".39"
         id="stop20" />
    </linearGradient>
    <linearGradient
       id="d">
      <stop
         offset="0"
         stop-color="#55c1ec"
         id="stop23" />
      <stop
         offset="1"
         stop-color="#3689e6"
         id="stop25" />
    </linearGradient>
    <linearGradient
       id="j">
      <stop
         offset="0"
         stop-color="#fff"
         id="stop28" />
      <stop
         offset=".06"
         stop-color="#fff"
         stop-opacity=".24"
         id="stop30" />
      <stop
         offset=".95"
         stop-color="#fff"
         stop-opacity=".16"
         id="stop32" />
      <stop
         offset="1"
         stop-color="#fff"
         stop-opacity=".39"
         id="stop34" />
    </linearGradient>
    <linearGradient
       id="a">
      <stop
         offset="0"
         stop-color="#181818"
         id="stop37" />
      <stop
         offset="1"
         stop-color="#181818"
         stop-opacity="0"
         id="stop39" />
    </linearGradient>
    <linearGradient
       id="b">
      <stop
         offset="0"
         stop-color="#181818"
         id="stop42" />
      <stop
         offset="1"
         stop-color="#181818"
         stop-opacity="0"
         id="stop44" />
    </linearGradient>
    <linearGradient
       id="c">
      <stop
         offset="0"
         stop-color="#181818"
         stop-opacity="0"
         id="stop47" />
      <stop
         offset=".5"
         stop-color="#181818"
         id="stop49" />
      <stop
         offset="1"
         stop-color="#181818"
         stop-opacity="0"
         id="stop51" />
    </linearGradient>
    <linearGradient
       id="f">
      <stop
         offset="0"
         stop-color="#fafafa"
         id="stop54" />
      <stop
         offset="1"
         stop-color="#e1e1e1"
         id="stop56" />
    </linearGradient>
    <linearGradient
       id="h">
      <stop
         offset="0"
         stop-color="#e9e9e9"
         id="stop59" />
      <stop
         offset="1"
         stop-color="#fff"
         id="stop61" />
    </linearGradient>
    <linearGradient
       id="g">
      <stop
         offset="0"
         stop-color="#fff"
         id="stop64" />
      <stop
         offset=".51"
         stop-color="#fff"
         stop-opacity=".24"
         id="stop66" />
      <stop
         offset=".83"
         stop-color="#fff"
         stop-opacity=".16"
         id="stop68" />
      <stop
         offset="1"
         stop-color="#fff"
         stop-opacity=".39"
         id="stop70" />
    </linearGradient>
    <linearGradient
       id="i">
      <stop
         offset="0"
         id="stop73" />
      <stop
         offset="1"
         stop-opacity="0"
         id="stop75" />
    </linearGradient>
    <linearGradient
       id="k">
      <stop
         offset="0"
         stop-color="#f4f4f4"
         id="stop78" />
      <stop
         offset="1"
         stop-color="#dbdbdb"
         id="stop80" />
    </linearGradient>
    <linearGradient
       id="l">
      <stop
         offset="0"
         stop-color="#fff"
         id="stop83" />
      <stop
         offset=".01"
         stop-color="#fff"
         stop-opacity=".24"
         id="stop85" />
      <stop
         offset=".99"
         stop-color="#fff"
         stop-opacity=".16"
         id="stop87" />
      <stop
         offset="1"
         stop-color="#fff"
         stop-opacity=".39"
         id="stop89" />
    </linearGradient>
    <linearGradient
       id="v"
       x1="14.56"
       x2="17.69"
       y1="27.1"
       y2="22.47"
       gradientUnits="userSpaceOnUse"
       xlink:href="#m"
       gradientTransform="matrix(2.7054542,0,0,2.6876399,41.609823,26.241342)" />
    <linearGradient
       id="w"
       x1="-561.3"
       x2="-561.3"
       y1="-222.03"
       y2="-229.81"
       gradientTransform="matrix(0.69614164,-1.027591,1.0114081,0.70728563,722.6807,-352.23986)"
       gradientUnits="userSpaceOnUse">
      <stop
         offset="0"
         stop-color="#3689e6"
         id="stop93" />
      <stop
         offset=".32"
         stop-color="#8cd5ff"
         id="stop95" />
      <stop
         offset="1"
         stop-color="#3689e6"
         id="stop97" />
    </linearGradient>
    <linearGradient
       id="x"
       x1="-549.18"
       x2="-549.18"
       y1="-222.03"
       y2="-229.81"
       gradientTransform="matrix(0.70275061,-1.0174672,1.0210102,0.70031748,727.99382,-347.74572)"
       gradientUnits="userSpaceOnUse">
      <stop
         offset="0"
         stop-color="#3689e6"
         id="stop100" />
      <stop
         offset=".32"
         stop-color="#8cd5ff"
         id="stop102" />
      <stop
         offset="1"
         stop-color="#3689e6"
         id="stop104" />
    </linearGradient>
    <linearGradient
       id="n">
      <stop
         offset="0"
         stop-color="#fff"
         id="stop107" />
      <stop
         offset="0"
         stop-color="#fff"
         stop-opacity=".24"
         id="stop109" />
      <stop
         offset="1"
         stop-color="#fff"
         stop-opacity=".16"
         id="stop111" />
      <stop
         offset="1"
         stop-color="#fff"
         stop-opacity=".39"
         id="stop113" />
    </linearGradient>
    <linearGradient
       id="p">
      <stop
         offset="0"
         stop-color="#586e75"
         id="stop116" />
      <stop
         offset="1"
         stop-color="#073642"
         id="stop118" />
    </linearGradient>
    <linearGradient
       id="o">
      <stop
         offset="0"
         stop-color="#fdf6e3"
         id="stop121" />
      <stop
         offset="1"
         stop-color="#eee8d5"
         id="stop123" />
    </linearGradient>
    <linearGradient
       id="t"
       x1="25.73"
       x2="25.73"
       y1=".55"
       y2="46.16"
       gradientTransform="matrix(2.88089,-0.25205,0.20258,2.31548,-2.51,11.74)"
       gradientUnits="userSpaceOnUse"
       xlink:href="#n" />
    <linearGradient
       id="s"
       x1="-65.91"
       x2="-54.76"
       y1="7.69"
       y2="115.17"
       gradientUnits="userSpaceOnUse"
       xlink:href="#q" />
    <radialGradient
       id="r"
       cx="32"
       cy="59.5"
       r="28"
       fx="32"
       fy="59.5"
       gradientTransform="matrix(2.28571 0 0 .21429 -9.14 106.25)"
       gradientUnits="userSpaceOnUse"
       xlink:href="#i" />
    <filter
       id="u"
       width="1.12"
       height="1.08"
       x="-.06"
       y="-.04"
       color-interpolation-filters="sRGB">
      <feGaussianBlur
         stdDeviation=".38"
         id="feGaussianBlur129" />
    </filter>
  </defs>
  <ellipse
     cx="64"
     cy="119"
     fill="url(#r)"
     opacity=".1"
     rx="64"
     ry="6"
     id="ellipse134" />
  <path
     stroke="#555761"
     stroke-linejoin="round"
     stroke-opacity="0.5"
     d="M 104.5,111.58 21.82,118.81 12.32,10.23 95,3 Z"
     id="path136"
     style="fill:url(#linearGradient1009);stroke-width:2;stroke-miterlimit:4;stroke-dasharray:none" />
  <path
     stroke="url(#t)"
     stroke-linecap="round"
     d="M 103,110.92829 22.317929,118 13,11.071711 93.682071,3.9999999 Z"
     opacity="0.3"
     id="path138"
     style="fill:url(#linearGradient1011);stroke:none;stroke-width:0.999999" />
  <rect
     width="55.056007"
     height="1.9063834"
     x="23.678358"
     y="50.825977"
     fill="#c6c7ca"
     ry="0"
     transform="matrix(0.99569657,-0.09267328,0.09490302,0.99548652,0,0)"
     id="rect142"
     style="stroke-width:0.999995" />
  <rect
     width="50.052471"
     height="2.0350578"
     x="23.654528"
     y="58.997559"
     fill="#c6c7ca"
     ry="0"
     transform="matrix(0.99504931,-0.09938246,0.0959799,0.99538327,0,0)"
     id="rect144"
     style="stroke-width:0.999999" />
  <rect
     width="45.074543"
     height="2.198791"
     x="24.5595"
     y="67.161224"
     fill="#c6c7ca"
     ry="0"
     transform="matrix(0.99429279,-0.10668579,0.08309359,0.99654175,0,0)"
     id="rect146"
     style="stroke-width:1.00013" />
  <rect
     width="40.084961"
     height="2.3795145"
     x="25.171432"
     y="75.356712"
     fill="#c6c7ca"
     ry="0"
     transform="matrix(0.99331408,-0.11544322,0.0769256,0.99703684,0,0)"
     id="rect148"
     style="stroke-width:1.00038" />
  <rect
     width="45.063919"
     height="2.1891997"
     x="24.323885"
     y="83.450974"
     fill="#c6c7ca"
     ry="0"
     transform="matrix(0.9942647,-0.10694723,0.088862,0.99604395,0,0)"
     id="rect150"
     style="stroke-width:1.00009" />
  <rect
     width="60.036808"
     height="1.8343275"
     x="23.180525"
     y="91.448082"
     fill="#c6c7ca"
     ry="0"
     transform="matrix(0.99627782,-0.08620036,0.10176003,0.99480897,0,0)"
     id="rect152"
     style="stroke-width:1.00005" />
  <rect
     width="55.049488"
     height="1.9104786"
     x="23.541796"
     y="-109.70806"
     fill="#c6c7ca"
     ry="0"
     transform="matrix(0.99570149,-0.09262047,-0.0979558,-0.99519077,0,0)"
     id="rect154"
     style="stroke-width:1.00001" />
  <rect
     width="45.068981"
     height="2.2024405"
     x="24.831682"
     y="-101.91956"
     fill="#c6c7ca"
     ry="0"
     transform="matrix(0.99429903,-0.10662753,-0.08534023,-0.99635187,0,0)"
     id="rect156"
     style="stroke-width:1.00012" />
  <rect
     width="50.052872"
     height="2.0333154"
     x="23.598886"
     y="34.581722"
     fill="#273445"
     ry="0"
     transform="matrix(0.99504594,-0.09941619,0.09594733,0.99538641,0,0)"
     id="rect158"
     style="stroke-width:1" />
  <rect
     width="45.074944"
     height="2.1971047"
     x="24.188347"
     y="42.739586"
     fill="#273445"
     ry="0"
     transform="matrix(0.9942889,-0.10672197,0.08305637,0.99654485,0,0)"
     id="rect160"
     style="stroke-width:1.00013" />
  <rect
     width="50.052471"
     height="2.0350578"
     x="23.579048"
     y="26.439747"
     fill="#c6c7ca"
     ry="0"
     transform="matrix(0.99504931,-0.09938246,0.0959799,0.99538327,0,0)"
     id="rect162"
     style="stroke-width:0.999999" />
  <g
     fill="#030303"
     stroke-width=".37"
     filter="url(#u)"
     opacity=".27"
     transform="matrix(2.6981 0 0 2.6981 40.22 26.98)"
     id="g170">
    <path
       d="M17.52 24.5c-1.17 1.72-2.82 2.64-2.94 2.56-.1-.07.14-1.97 1.32-3.7 1.18-1.72 2.48-2.88 2.94-2.56.46.32-.14 1.97-1.32 3.7z"
       id="path164" />
    <path
       d="M23.57 16.98c3.14-4.6 5.27-8.79 5.21-10.1v-.13l-.04-.08a.46.46 0 00-.05-.1l-.02-.02-.02-.02-.02-.01-.01-.01-.03-.02h-.03a.44.44 0 00-.11-.02h-.08c-.04 0-.09.02-.13.04-1.23.41-4.34 3.92-7.47 8.52a59.33 59.33 0 00-4.1 6.85l2.03 1.4a56.22 56.22 0 004.29-5.45l.58-.85z"
       id="path166" />
    <path
       d="M25.86 13.85c2.65-3.89 4.34-7.5 4.16-8.7L30 5.12v-.05L29.96 5l-.01-.04a.56.56 0 00-.05-.07l-.02-.03-.04-.03h-.01l-.02-.02-.04-.03h-.03a.63.63 0 00-.09-.02h-.12-.04l-.05.01c-1.17.26-3.9 3.14-6.55 7.03-.56.81-1.07 1.62-1.53 2.39l2.83 1.96c.38-.5.79-1.03 1.18-1.58l.48-.71z"
       id="path168" />
  </g>
  <path
     fill="url(#v)"
     stroke="#f9c440"
     d="m 89.00938,92.088519 c -3.165381,4.622741 -7.629381,7.09537 -7.954035,6.880358 -0.270546,-0.188134 0.378763,-5.29465 3.571199,-9.944267 3.192436,-4.622741 6.709527,-7.740403 7.954036,-6.880358 1.244509,0.860044 -0.378764,5.29465 -3.5712,9.944267 z"
     id="path172"
     style="fill:url(#v);stroke:#d48e15;stroke-width:2;stroke-miterlimit:4;stroke-dasharray:none;stroke-opacity:0.86" />
  <path
     fill="url(#w)"
     stroke="#0d52bf"
     d="M 104.92354,71.55551 C 113.40482,59.057377 119.15806,47.673208 118.996,44.113957 v -0.353208 l -0.10804,-0.217359 a 1.242483,1.2498133 0 0 0 -0.13505,-0.271698 l -0.0541,-0.05434 -0.0541,-0.05434 -0.0541,-0.02717 -0.027,-0.02717 -0.081,-0.05434 h -0.081 a 1.1884621,1.1954736 0 0 0 -0.29711,-0.05433 h -0.21609 c -0.10805,0 -0.24309,0.05433 -0.35114,0.10868 -3.32229,1.113964 -11.72255,10.650582 -20.17684,23.148715 A 160.2533,161.19875 0 0 0 86.286235,84.868756 l 5.483132,3.803779 A 151.85304,152.74891 0 0 0 103.35688,73.864966 Z"
     id="path174"
     style="fill:url(#w);stroke:#3689e6;stroke-width:2;stroke-miterlimit:4;stroke-dasharray:none;stroke-opacity:0.86" />
  <path
     fill="url(#x)"
     stroke="#0d52bf"
     d="m 110.61598,63.454064 c 7.22573,-10.464947 11.83384,-20.176633 11.34303,-23.404895 l -0.0546,-0.0807 v -0.134511 l -0.10907,-0.188315 -0.0273,-0.107609 a 1.5269481,1.5065219 0 0 0 -0.13633,-0.188315 l -0.0546,-0.0807 -0.10907,-0.0807 h -0.0273 l -0.0546,-0.05381 -0.10907,-0.0807 h -0.0819 a 1.7178166,1.6948372 0 0 0 -0.24523,-0.05381 h -0.32722 -0.10907 l -0.13633,0.0269 c -3.19023,0.699457 -10.6341,8.447283 -17.85984,18.91223 -1.52695,2.179077 -2.917562,4.358154 -4.171842,6.429621 l 7.716542,5.272827 c 1.03615,-1.345109 2.15409,-2.770925 3.2175,-4.250544 l 1.30881,-1.910055 z"
     id="path176"
     style="fill:url(#x);stroke:#3689e6;stroke-width:2;stroke-miterlimit:4;stroke-dasharray:none;stroke-opacity:0.86" />
</svg>
