<?xml version="1.0" encoding="UTF-8"?>
<svg height="128px" viewBox="0 0 128 128" width="128px" xmlns="http://www.w3.org/2000/svg" xmlns:xlink="http://www.w3.org/1999/xlink">
    <linearGradient id="a" gradientTransform="matrix(0.196428 0 0 0.32403 2.597261 265.122009)" gradientUnits="userSpaceOnUse" x1="88.595886" x2="536.595886" y1="-449.394012" y2="-449.394012">
        <stop offset="0" stop-color="#deddda"/>
        <stop offset="0.0500001" stop-color="#f6f5f4"/>
        <stop offset="0.099807" stop-color="#deddda"/>
        <stop offset="0.900001" stop-color="#deddda"/>
        <stop offset="0.950001" stop-color="#f6f5f4"/>
        <stop offset="1" stop-color="#deddda"/>
    </linearGradient>
    <linearGradient id="b" gradientTransform="matrix(0.707107 -0.707107 0.707107 0.707107 -161.78889 -73.220344)" gradientUnits="userSpaceOnUse" x1="48" x2="48" y1="260" y2="276">
        <stop offset="0" stop-color="#f8e45c"/>
        <stop offset="1" stop-color="#f5c211"/>
    </linearGradient>
    <linearGradient id="c" gradientTransform="matrix(0.935518 -0.935518 0.707107 0.707107 -174.579902 -60.429333)" gradientUnits="userSpaceOnUse" x1="64" x2="64" y1="260" y2="276">
        <stop offset="0" stop-color="#62a0ea"/>
        <stop offset="1" stop-color="#1c71d8"/>
    </linearGradient>
    <clipPath id="d">
        <rect height="128" width="128"/>
    </clipPath>
    <clipPath id="e">
        <rect height="128" width="128"/>
    </clipPath>
    <filter id="f" height="100%" width="100%" x="0%" y="0%">
        <feColorMatrix in="SourceGraphic" type="matrix" values="0 0 0 0 1 0 0 0 0 1 0 0 0 0 1 0 0 0 1 0"/>
    </filter>
    <mask id="g">
        <g clip-path="url(#e)" filter="url(#f)">
            <g clip-path="url(#d)">
                <path d="m 28 21 h 72 c 4.417969 0 8 3.582031 8 8 v 82.503906 c 0 4.417969 -3.582031 8 -8 8 h -72 c -4.417969 0 -8 -3.582031 -8 -8 v -82.503906 c 0 -4.417969 3.582031 -8 8 -8 z m 0 0" fill="url(#a)"/>
                <path d="m 28 8.496094 h 72 c 4.417969 0 8 3.582031 8 8 v 88 c 0 4.417968 -3.582031 8 -8 8 h -72 c -4.417969 0 -8 -3.582032 -8 -8 v -88 c 0 -4.417969 3.582031 -8 8 -8 z m 0 0" fill="#ffffff"/>
                <path d="m 34 20 h 54 v 4 h -54 z m 0 0" fill="#deddda" fill-opacity="0.893878"/>
                <path d="m 28 28 h 55 v 4 h -55 z m 0 0" fill="#deddda" fill-opacity="0.893878"/>
                <path d="m 28 36 h 44.214844 v 4 h -44.214844 z m 0 0" fill="#deddda" fill-opacity="0.893878"/>
                <path d="m 28 44 h 49.34375 v 4 h -49.34375 z m 0 0" fill="#deddda" fill-opacity="0.893878"/>
                <path d="m 28.367188 52 h 39.265624 v 4 h -39.265624 z m 0 0" fill="#deddda" fill-opacity="0.893878"/>
                <path d="m 28 20 h 4 v 4 h -4 z m 0 0" fill="#deddda" fill-opacity="0.893878"/>
                <path d="m 28 60 h 55 v 4 h -55 z m 0 0" fill="#deddda" fill-opacity="0.893878"/>
                <path d="m 28 68 h 44 v 4 h -44 z m 0 0" fill="#deddda" fill-opacity="0.893878"/>
                <path d="m 28 84 h 28 v 4 h -28 z m 0 0" fill="#241f31" fill-opacity="0.893878"/>
                <path d="m 28 76 h 60 v 4 h -60 z m 0 0" fill="#241f31" fill-opacity="0.893878"/>
                <path d="m 56 76.6875 v 11.3125 h 11.3125 s 6.363281 -4.949219 0 -11.3125 s -11.3125 0 -11.3125 0 z m 0 0" fill="url(#b)"/>
                <path d="m 67.3125 76.6875 s -5.65625 -5.65625 1.828125 -13.140625 s 29.9375 -29.9375 29.9375 -29.9375 s 7.484375 -7.484375 13.140625 -1.828125 s -1.828125 13.140625 -1.828125 13.140625 l -29.9375 29.9375 s -7.484375 7.484375 -13.140625 1.828125 z m 0 0" fill="url(#c)"/>
                <path d="m 64.484375 79.515625 c 0.78125 0.78125 0.78125 2.046875 0 2.828125 s -2.046875 0.78125 -2.828125 0 s -0.78125 -2.046875 0 -2.828125 s 2.046875 -0.78125 2.828125 0 z m 0 0" fill="#e5a50a"/>
                <path d="m 62 254 l -6 6 z m 0 0" fill="none" stroke="#e5a50a" stroke-linejoin="round" transform="matrix(1 0 0 1 0 -172)"/>
            </g>
        </g>
    </mask>
    <mask id="h">
        <g filter="url(#f)">
            <rect fill-opacity="0.8" height="128" width="128"/>
        </g>
    </mask>
    <linearGradient id="i" gradientTransform="matrix(0 0.37 -0.98462 0 295.38501 -30.360001)" gradientUnits="userSpaceOnUse" x1="300" x2="428" y1="235" y2="235">
        <stop offset="0" stop-color="#f9f06b"/>
        <stop offset="1" stop-color="#f5c211"/>
    </linearGradient>
    <clipPath id="j">
        <rect height="128" width="128"/>
    </clipPath>
    <clipPath id="k">
        <rect height="128" width="128"/>
    </clipPath>
    <path d="m 28 21 h 72 c 4.417969 0 8 3.582031 8 8 v 82.503906 c 0 4.417969 -3.582031 8 -8 8 h -72 c -4.417969 0 -8 -3.582031 -8 -8 v -82.503906 c 0 -4.417969 3.582031 -8 8 -8 z m 0 0" fill="url(#a)"/>
    <path d="m 28 8.496094 h 72 c 4.417969 0 8 3.582031 8 8 v 88 c 0 4.417968 -3.582031 8 -8 8 h -72 c -4.417969 0 -8 -3.582032 -8 -8 v -88 c 0 -4.417969 3.582031 -8 8 -8 z m 0 0" fill="#ffffff"/>
    <g fill-opacity="0.893878">
        <path d="m 34 20 h 54 v 4 h -54 z m 0 0" fill="#deddda"/>
        <path d="m 28 28 h 55 v 4 h -55 z m 0 0" fill="#deddda"/>
        <path d="m 28 36 h 44.214844 v 4 h -44.214844 z m 0 0" fill="#deddda"/>
        <path d="m 28 44 h 49.34375 v 4 h -49.34375 z m 0 0" fill="#deddda"/>
        <path d="m 28.367188 52 h 39.265624 v 4 h -39.265624 z m 0 0" fill="#deddda"/>
        <path d="m 28 20 h 4 v 4 h -4 z m 0 0" fill="#deddda"/>
        <path d="m 28 60 h 55 v 4 h -55 z m 0 0" fill="#deddda"/>
        <path d="m 28 68 h 44 v 4 h -44 z m 0 0" fill="#deddda"/>
        <path d="m 28 84 h 28 v 4 h -28 z m 0 0" fill="#241f31"/>
        <path d="m 28 76 h 60 v 4 h -60 z m 0 0" fill="#241f31"/>
    </g>
    <path d="m 56 76.6875 v 11.3125 h 11.3125 s 6.363281 -4.949219 0 -11.3125 s -11.3125 0 -11.3125 0 z m 0 0" fill="url(#b)"/>
    <path d="m 67.3125 76.6875 s -5.65625 -5.65625 1.828125 -13.140625 s 29.9375 -29.9375 29.9375 -29.9375 s 7.484375 -7.484375 13.140625 -1.828125 s -1.828125 13.140625 -1.828125 13.140625 l -29.9375 29.9375 s -7.484375 7.484375 -13.140625 1.828125 z m 0 0" fill="url(#c)"/>
    <path d="m 64.484375 79.515625 c 0.78125 0.78125 0.78125 2.046875 0 2.828125 s -2.046875 0.78125 -2.828125 0 s -0.78125 -2.046875 0 -2.828125 s 2.046875 -0.78125 2.828125 0 z m 0 0" fill="#e5a50a"/>
    <path d="m 62 82 l -6 6 z m 0 0" fill="none" stroke="#e5a50a" stroke-linejoin="round"/>
    <g clip-path="url(#k)" mask="url(#g)">
        <g clip-path="url(#j)" mask="url(#h)">
            <path d="m 128 80.640625 v 47.359375 h -128 v -47.359375 z m 0 0" fill="url(#i)"/>
            <path d="m 13.308594 80.640625 l 47.355468 47.359375 h 21.214844 l -47.359375 -47.359375 z m 42.421875 0 l 47.363281 47.359375 h 21.214844 l -47.363282 -47.359375 z m 42.429687 0 l 29.839844 29.839844 v -21.210938 l -8.628906 -8.628906 z m -98.160156 7.90625 v 21.214844 l 18.238281 18.238281 h 21.214844 z m 0 0"/>
        </g>
    </g>
</svg>
