<?xml version="1.0" encoding="UTF-8"?>
<svg height="16px" viewBox="0 0 16 16" width="16px" xmlns="http://www.w3.org/2000/svg" xmlns:xlink="http://www.w3.org/1999/xlink">
    <filter id="a" height="100%" width="100%" x="0%" y="0%">
        <feColorMatrix in="SourceGraphic" type="matrix" values="0 0 0 0 1 0 0 0 0 1 0 0 0 0 1 0 0 0 1 0"/>
    </filter>
    <mask id="b">
        <g filter="url(#a)">
            <rect fill-opacity="0.154" height="16" width="16"/>
        </g>
    </mask>
    <clipPath id="c">
        <rect height="152" width="192"/>
    </clipPath>
    <mask id="d">
        <g filter="url(#a)">
            <rect fill-opacity="0.154" height="16" width="16"/>
        </g>
    </mask>
    <clipPath id="e">
        <rect height="152" width="192"/>
    </clipPath>
    <g fill="none" stroke-linecap="round" stroke-width="12">
        <path d="m -44 64.125 l -28 28.875" stroke="#0e0c13" stroke-opacity="0.1"/>
        <path d="m -44 62.0625 l -14 14.4375" stroke="#1a5fb4"/>
        <path d="m -44 60 l -14 14.4375" stroke="#3584e4"/>
    </g>
    <g clip-path="url(#c)" mask="url(#b)" transform="matrix(1 0 0 1 -168 -16)">
        <path d="m 99 245.40625 l 16 -16.5" fill="none" stroke="#99c1f1" stroke-linecap="round" stroke-width="2" transform="matrix(1 0 0 1 8 -156)"/>
    </g>
    <path d="m -58 76.5 l -14 14.4375" fill="none" stroke="#1a5fb4" stroke-linecap="round" stroke-width="12"/>
    <path d="m -58 74.4375 l -14 14.4375" fill="none" stroke="#3584e4" stroke-linecap="round" stroke-width="12"/>
    <g clip-path="url(#e)" mask="url(#d)" transform="matrix(1 0 0 1 -168 -16)">
        <path d="m 85 259.84375 l 16 -16.5" fill="none" stroke="#99c1f1" stroke-linecap="round" stroke-width="2" transform="matrix(1 0 0 1 8 -156)"/>
    </g>
    <path d="m 3 1 c -0.867188 0 -2 0.875 -2 1.75 v 10.25 c 0 0.875 1.132812 2 2 2 h 7 c 0.867188 0 1.953125 -1.125 2 -2 v -4 l -2 2 v 1 c 0 0.488281 -0.578125 1 -1 1 h -5 c -0.507812 0 -1 -0.546875 -1 -1 v -8 c 0 -0.367188 0.539062 -1 1 -1 h 6 l 2 -2 z m 9 2 c -1.804688 1.824219 -5 5 -5 5 l -1 1 c 0 2 2 2 2 2 l 6 -6 c 0 -1 -1 -2 -2 -2 z m 0 0" fill="#241f31"/>
    <path d="m 4 4 h 5 l -1 1 h -4 z m 0 0" fill="#241f31"/>
    <path d="m 4 6 h 3 l -1 1 h -2 z m 0 0" fill="#241f31"/>
</svg>
